<mxfile host="app.diagrams.net" modified="2022-02-23T21:30:06.087Z" agent="5.0 (Macintosh; Intel Mac OS X 10_15_7) AppleWebKit/605.1.15 (KHTML, like Gecko) Version/15.3 Safari/605.1.15" etag="W6zHggwUnB7XSMym898-" version="16.6.3" type="github">
  <diagram id="yiech2I5wDsye3f-JXlS" name="Page-1">
    <mxGraphModel dx="1351" dy="1361" grid="1" gridSize="10" guides="1" tooltips="1" connect="1" arrows="1" fold="1" page="0" pageScale="1" pageWidth="850" pageHeight="1100" math="0" shadow="0">
      <root>
        <mxCell id="0" />
        <mxCell id="1" style="" parent="0" />
        <mxCell id="ka9l8RHywpmPQisExGzO-5" value="" style="group" vertex="1" connectable="0" parent="1">
          <mxGeometry x="70" y="80" width="840" height="480" as="geometry" />
        </mxCell>
        <mxCell id="ka9l8RHywpmPQisExGzO-3" value="" style="rounded=0;whiteSpace=wrap;html=1;fillColor=#f8cecc;strokeColor=#b85450;" vertex="1" parent="ka9l8RHywpmPQisExGzO-5">
          <mxGeometry width="840" height="50" as="geometry" />
        </mxCell>
        <mxCell id="ka9l8RHywpmPQisExGzO-4" value="" style="rounded=0;whiteSpace=wrap;html=1;fillColor=#f8cecc;strokeColor=#b85450;" vertex="1" parent="ka9l8RHywpmPQisExGzO-5">
          <mxGeometry y="50" width="110" height="430" as="geometry" />
        </mxCell>
        <mxCell id="ka9l8RHywpmPQisExGzO-1" value="" style="rounded=0;whiteSpace=wrap;html=1;fillColor=none;" vertex="1" parent="ka9l8RHywpmPQisExGzO-5">
          <mxGeometry width="840" height="480" as="geometry" />
        </mxCell>
        <mxCell id="ka9l8RHywpmPQisExGzO-15" value="" style="group" vertex="1" connectable="0" parent="ka9l8RHywpmPQisExGzO-5">
          <mxGeometry x="210" y="100" width="590" height="270" as="geometry" />
        </mxCell>
        <mxCell id="ka9l8RHywpmPQisExGzO-8" value="" style="rounded=0;whiteSpace=wrap;html=1;fillColor=#d5e8d4;strokeColor=#82b366;" vertex="1" parent="ka9l8RHywpmPQisExGzO-15">
          <mxGeometry x="490" y="240" width="100" height="30" as="geometry" />
        </mxCell>
        <mxCell id="ka9l8RHywpmPQisExGzO-14" value="" style="whiteSpace=wrap;html=1;fillColor=#d5e8d4;strokeColor=#82b366;" vertex="1" parent="ka9l8RHywpmPQisExGzO-15">
          <mxGeometry width="590" height="220" as="geometry" />
        </mxCell>
        <mxCell id="ka9l8RHywpmPQisExGzO-7" style="edgeStyle=orthogonalEdgeStyle;rounded=0;orthogonalLoop=1;jettySize=auto;html=1;exitX=0.5;exitY=1;exitDx=0;exitDy=0;entryX=0.25;entryY=0;entryDx=0;entryDy=0;" edge="1" parent="1" source="ka9l8RHywpmPQisExGzO-6" target="ka9l8RHywpmPQisExGzO-1">
          <mxGeometry relative="1" as="geometry" />
        </mxCell>
        <mxCell id="ka9l8RHywpmPQisExGzO-6" value="&lt;h1&gt;Nav Bar&lt;/h1&gt;&lt;div&gt;This is the navbar that appears on every page.&lt;/div&gt;" style="text;html=1;strokeColor=none;fillColor=none;spacing=5;spacingTop=-20;whiteSpace=wrap;overflow=hidden;rounded=0;" vertex="1" parent="1">
          <mxGeometry x="190" y="-150" width="190" height="120" as="geometry" />
        </mxCell>
        <mxCell id="ka9l8RHywpmPQisExGzO-10" style="edgeStyle=orthogonalEdgeStyle;rounded=0;orthogonalLoop=1;jettySize=auto;html=1;exitX=0;exitY=0.5;exitDx=0;exitDy=0;entryX=0.952;entryY=0.418;entryDx=0;entryDy=0;entryPerimeter=0;" edge="1" parent="1" source="ka9l8RHywpmPQisExGzO-9" target="ka9l8RHywpmPQisExGzO-1">
          <mxGeometry relative="1" as="geometry">
            <Array as="points">
              <mxPoint x="905" y="281" />
            </Array>
          </mxGeometry>
        </mxCell>
        <mxCell id="ka9l8RHywpmPQisExGzO-9" value="&lt;h1&gt;Image browser&lt;/h1&gt;&lt;div&gt;This will assist the user in uploading the correct image&lt;/div&gt;" style="text;html=1;strokeColor=none;fillColor=none;spacing=5;spacingTop=-20;whiteSpace=wrap;overflow=hidden;rounded=0;" vertex="1" parent="1">
          <mxGeometry x="970" y="220" width="190" height="120" as="geometry" />
        </mxCell>
        <mxCell id="ka9l8RHywpmPQisExGzO-11" value="Untitled Layer" style="" parent="0" />
        <mxCell id="ka9l8RHywpmPQisExGzO-17" style="edgeStyle=orthogonalEdgeStyle;rounded=0;orthogonalLoop=1;jettySize=auto;html=1;exitX=0.5;exitY=0;exitDx=0;exitDy=0;" edge="1" parent="ka9l8RHywpmPQisExGzO-11" source="ka9l8RHywpmPQisExGzO-16">
          <mxGeometry relative="1" as="geometry">
            <mxPoint x="830" y="450" as="targetPoint" />
          </mxGeometry>
        </mxCell>
        <mxCell id="ka9l8RHywpmPQisExGzO-16" value="&lt;h1&gt;upload button&lt;/h1&gt;&lt;div&gt;This will post the image to the users images page&lt;/div&gt;" style="text;html=1;strokeColor=none;fillColor=none;spacing=5;spacingTop=-20;whiteSpace=wrap;overflow=hidden;rounded=0;" vertex="1" parent="ka9l8RHywpmPQisExGzO-11">
          <mxGeometry x="750" y="650" width="190" height="120" as="geometry" />
        </mxCell>
      </root>
    </mxGraphModel>
  </diagram>
</mxfile>
